<svg width="70" height="69" viewBox="0 0 70 69" fill="none" xmlns="http://www.w3.org/2000/svg">
<path d="M23.4133 55.3201C23.4133 55.6042 23.0887 55.8316 22.6794 55.8316C22.2137 55.8742 21.8891 55.6469 21.8891 55.3201C21.8891 55.036 22.2137 54.8087 22.623 54.8087C23.0464 54.7661 23.4133 54.9934 23.4133 55.3201ZM19.0242 54.6808C18.9254 54.965 19.2077 55.2917 19.631 55.3769C19.998 55.519 20.4214 55.3769 20.506 55.0928C20.5907 54.8087 20.3226 54.4819 19.8992 54.3541C19.5323 54.2546 19.123 54.3967 19.0242 54.6808ZM25.2621 54.4393C24.8528 54.5388 24.5706 54.8087 24.6129 55.1354C24.6552 55.4196 25.0222 55.6042 25.4456 55.5048C25.8548 55.4054 26.1371 55.1354 26.0948 54.8513C26.0524 54.5814 25.6714 54.3967 25.2621 54.4393ZM34.5484 0C14.9738 0 0 14.9594 0 34.6639C0 50.4189 9.85081 63.9008 23.9214 68.6458C25.7278 68.9726 26.3629 67.8503 26.3629 66.9268C26.3629 66.046 26.3206 61.1874 26.3206 58.204C26.3206 58.204 16.4415 60.335 14.3669 53.9705C14.3669 53.9705 12.7581 49.8364 10.4435 48.7709C10.4435 48.7709 7.21169 46.5405 10.6694 46.5831C10.6694 46.5831 14.1835 46.8673 16.1169 50.2484C19.2077 55.7321 24.3871 54.1552 26.4052 53.2176C26.7298 50.9445 27.6472 49.3676 28.6633 48.43C20.7742 47.5492 12.8145 46.3984 12.8145 32.7318C12.8145 28.825 13.8871 26.8645 16.1452 24.3642C15.7782 23.4407 14.5786 19.6334 16.5121 14.7179C19.4617 13.7945 26.25 18.5537 26.25 18.5537C29.0726 17.7581 32.1069 17.3461 35.1129 17.3461C38.119 17.3461 41.1532 17.7581 43.9758 18.5537C43.9758 18.5537 50.7641 13.7803 53.7137 14.7179C55.6472 19.6476 54.4476 23.4407 54.0806 24.3642C56.3387 26.8787 57.7218 28.8392 57.7218 32.7318C57.7218 46.4411 49.4093 47.535 41.5202 48.43C42.8185 49.5523 43.9194 51.6833 43.9194 55.0218C43.9194 59.8094 43.877 65.7335 43.877 66.8984C43.877 67.8218 44.5262 68.9442 46.3185 68.6174C60.4315 63.9008 70 50.4189 70 34.6639C70 14.9594 54.123 0 34.5484 0ZM13.7177 48.9982C13.5343 49.1403 13.5766 49.467 13.8165 49.737C14.0423 49.9643 14.3669 50.0637 14.5504 49.879C14.7339 49.737 14.6915 49.4102 14.4516 49.1403C14.2258 48.913 13.9012 48.8135 13.7177 48.9982ZM12.1935 47.8475C12.0948 48.0322 12.2359 48.2595 12.5181 48.4016C12.744 48.5436 13.0262 48.501 13.125 48.3021C13.2238 48.1174 13.0827 47.8901 12.8004 47.7481C12.5181 47.6628 12.2923 47.7054 12.1935 47.8475ZM16.7661 52.905C16.5403 53.0897 16.625 53.5159 16.9496 53.7858C17.2742 54.1126 17.6835 54.1552 17.8669 53.9279C18.0504 53.7432 17.9657 53.317 17.6835 53.0471C17.373 52.7203 16.9496 52.6777 16.7661 52.905ZM15.1573 50.8167C14.9315 50.9587 14.9315 51.3281 15.1573 51.6548C15.3831 51.9816 15.7641 52.1237 15.9476 51.9816C16.1734 51.7969 16.1734 51.4275 15.9476 51.1008C15.75 50.774 15.3831 50.632 15.1573 50.8167Z" fill="white"/>
</svg>
