<svg width="70" height="70" viewBox="0 0 70 70" fill="none" xmlns="http://www.w3.org/2000/svg">
<g clip-path="url(#clip0_34_3)">
<path fill-rule="evenodd" clip-rule="evenodd" d="M37.9083 31.4385V31.3362C37.8872 31.3705 37.858 31.4048 37.8397 31.4385H37.9083Z" fill="white"/>
<path fill-rule="evenodd" clip-rule="evenodd" d="M0 0V70H70V0H0ZM21.7726 58.1542H11.3871V26.9086H21.7726V58.1542ZM16.5798 22.644H16.5112C13.0274 22.644 10.7692 20.2438 10.7692 17.2438C10.7692 14.178 13.0934 11.8458 16.6478 11.8458C20.2031 11.8458 22.3878 14.178 22.4558 17.2438C22.4558 20.2438 20.2031 22.644 16.5798 22.644ZM59.2308 58.1542H48.8425V41.4377C48.8425 37.2391 47.3415 34.3731 43.5817 34.3731C40.7103 34.3731 39.004 36.3028 38.2523 38.172C37.9791 38.8397 37.9077 39.7678 37.9077 40.7042V58.1543H27.5174C27.5174 58.1543 27.6566 29.84 27.5174 26.9088H37.9077V31.3363C39.2882 29.2122 41.7517 26.1752 47.2702 26.1752C54.1066 26.1752 59.2308 30.6398 59.2308 40.2365V58.1542Z" fill="white"/>
</g>
<defs>
<clipPath id="clip0_34_3">
<rect width="70" height="70" fill="white"/>
</clipPath>
</defs>
</svg>
